# Blender 4.0.2
# www.blender.org
o sphere
v -0.056384 -1.044445 0.109939
v -0.415911 -0.886724 -0.469725
v -0.387420 -0.702591 1.356630
v 0.662036 -0.628964 1.246499
v 0.781594 -0.662682 -0.313640
v 0.485821 -0.333811 -0.895660
v -1.071258 -0.183575 -0.118771
v -0.555608 0.175090 -0.893066
v -0.714571 0.156590 1.549384
v 0.011448 -0.170345 2.050704
v 0.813944 0.547390 -0.433754
v 0.136925 0.563673 -0.900312
v 0.962380 0.288495 0.703291
v 0.138185 0.501575 1.894032
v -0.654996 0.812794 -0.272820
v -0.392954 0.900590 0.660726
v 0.253124 1.035269 0.156582
vn -0.0294 -0.9995 -0.0096
vn 0.6660 -0.5999 0.4434
vn -0.4385 -0.7805 0.4457
vn -0.9730 -0.1708 -0.1554
vn -0.3871 -0.7853 -0.4833
vn 0.0621 -0.2596 0.9637
vn -0.5178 0.0961 -0.8501
vn 0.7385 -0.6018 -0.3042
vn 0.9330 0.2886 0.2148
vn 0.4117 -0.3198 -0.8534
vn 0.7850 0.4729 -0.4002
vn 0.1268 0.5476 -0.8271
vn 0.2197 0.5891 0.7776
vn -0.8186 0.1752 0.5470
vn -0.6069 0.7408 -0.2880
vn -0.4390 0.8698 0.2253
vn 0.2597 0.9654 -0.0254
vt 0.635096 0.084714
vt 0.827927 0.325849
vt 0.620477 0.281071
vt 0.418306 0.445973
vt 0.310257 0.234508
vt 0.698997 0.451373
vt 0.288643 0.551505
vt 0.991688 0.275823
vt 0.892515 0.578544
vt 0.119174 0.403326
vt 0.034896 0.645701
vt 0.024755 0.292936
vt 0.174594 0.673954
vt 0.727746 0.634486
vt 0.581274 0.542026
vt 0.377225 0.757311
vt 0.554240 0.834294
vt 0.993126 0.703338
vt 0.891711 0.894349
vt 0.435725 0.891925
s 1
f 1/1/1 4/2/2 3/3/3
f 3/3/3 7/4/4 2/5/5
f 3/3/3 4/2/2 10/6/6
f 7/4/4 8/7/7 2/5/5
f 4/2/2 5/8/8 13/9/9
f 6/10/10 11/11/11 5/12/8
f 6/10/10 8/7/7 12/13/12
f 10/6/6 4/2/2 14/14/13
f 12/13/12 11/11/11 6/10/10
f 7/4/4 9/15/14 15/16/15
f 9/15/14 14/14/13 16/17/16
f 11/18/11 17/19/17 13/9/9
f 12/13/12 17/20/17 11/11/11
f 16/17/16 17/20/17 15/16/15
f 1/1/1 2/5/5 5/12/8
f 1/1/1 5/8/8 4/2/2
f 1/1/1 3/3/3 2/5/5
f 2/5/5 6/10/10 5/12/8
f 2/5/5 8/7/7 6/10/10
f 3/3/3 9/15/14 7/4/4
f 3/3/3 10/6/6 9/15/14
f 5/8/8 11/18/11 13/9/9
f 9/15/14 10/6/6 14/14/13
f 4/2/2 13/9/9 14/14/13
f 7/4/4 15/16/15 8/7/7
f 12/13/12 8/7/7 15/16/15
f 15/16/15 9/15/14 16/17/16
f 13/9/9 17/19/17 14/14/13
f 16/17/16 14/14/13 17/19/17
f 12/13/12 15/16/15 17/20/17
