# Blender 4.0.2
# www.blender.org
o sphere
v 0.089453 -1.016183 -0.067157
v -0.198193 -0.975411 0.547488
v -0.347426 -0.897810 -0.346265
v 0.293133 -0.795884 1.177068
v 0.009863 -0.793943 -0.642539
v -0.626378 -0.807593 -0.102089
v -0.547752 -0.656667 1.158308
v -0.177347 -0.668262 1.518850
v 0.548850 -0.833502 0.468261
v 0.898766 -0.476559 -0.162146
v 0.492196 -0.810927 -0.380552
v -0.437756 -0.659615 -0.661573
v 0.363671 -0.579804 -0.751483
v -0.932453 -0.410317 0.348990
v 0.729575 -0.514194 1.077552
v 0.716838 -0.179893 -0.715321
v -0.920545 -0.187548 -0.427112
v 0.156145 -0.368858 1.874929
v 0.141028 -0.281600 -0.968889
v -0.464381 -0.150314 -0.896648
v -0.683327 -0.157900 1.502411
v -0.297466 -0.151985 1.901371
v 0.683264 -0.157782 1.502578
v 0.000111 0.074814 2.010833
v 0.920587 0.428655 -0.222919
v 0.143487 0.221372 -0.988157
v -1.002033 0.161334 0.364473
v 0.291730 0.225701 1.890679
v 1.013708 -0.009446 0.363065
v -0.299837 0.376580 -0.892234
v -0.654573 0.380457 -0.686407
v -0.658475 0.387712 1.394933
v -0.295384 0.376145 1.796137
v 0.555891 0.382973 1.536074
v 0.840073 0.391555 0.927823
v 0.680141 0.384801 -0.657900
v -0.830155 0.521084 -0.258896
v -0.761260 0.674222 0.309666
v -0.065965 0.658007 1.575236
v 0.597181 0.739226 -0.377907
v 0.130818 0.743584 -0.695938
v 0.306533 0.713850 1.328603
v -0.404967 0.864190 -0.399309
v -0.392954 0.900590 0.660726
v 0.548850 0.833502 0.468261
v 0.102431 1.006891 -0.158490
v 0.136040 0.971099 0.657180
vn 0.0928 -0.9889 -0.1159
vn -0.1867 -0.9719 0.1433
vn -0.3168 -0.8975 -0.3069
vn 0.5319 -0.8417 0.0924
vn 0.3130 -0.8765 0.3658
vn -0.2302 -0.8043 0.5478
vn 0.0122 -0.7674 -0.6411
vn -0.4505 -0.5989 -0.6621
vn 0.5037 -0.7898 -0.3499
vn 0.8794 -0.4291 -0.2064
vn -0.6219 -0.7067 0.3373
vn -0.9113 -0.4033 0.0832
vn -0.6453 -0.7528 -0.1299
vn 0.2598 -0.5232 0.8116
vn 0.7917 -0.5243 0.3135
vn 0.3861 -0.5598 -0.7332
vn 0.7173 -0.1624 -0.6776
vn 0.1118 -0.2650 -0.9577
vn -0.8980 -0.1754 -0.4036
vn -0.4475 -0.1524 -0.8812
vn -0.4923 -0.2454 0.8351
vn 0.9970 -0.0314 0.0704
vn 0.9043 0.3667 -0.2188
vn 0.1601 0.2090 -0.9647
vn -0.8292 -0.1988 0.5224
vn -0.9849 0.1511 0.0850
vn 0.8177 -0.1914 0.5428
vn 0.4432 0.3254 0.8353
vn 0.0021 0.1262 0.9920
vn -0.4287 0.5118 0.7446
vn 0.8738 0.4061 0.2676
vn 0.6497 0.3419 -0.6790
vn -0.8372 0.4804 -0.2615
vn -0.7689 0.4585 0.4456
vn -0.7485 0.6608 0.0550
vn -0.0957 0.8245 0.5577
vn 0.5527 0.7593 -0.3436
vn -0.2835 0.3815 -0.8798
vn 0.1287 0.7163 -0.6858
vn -0.3862 0.8383 -0.3848
vn -0.6605 0.3538 -0.6622
vn 0.7039 0.4750 0.5281
vn 0.3754 0.8306 0.4113
vn 0.5761 0.8108 0.1034
vn 0.0996 0.9811 -0.1660
vn 0.1156 0.9772 0.1778
vn -0.3926 0.8999 0.1897
vt 0.649457 0.071203
vt 0.605104 0.112932
vt 0.326253 0.156031
vt 0.898595 0.202027
vt 0.775772 0.222457
vt 0.664102 0.277825
vt 0.195741 0.215795
vt 0.295733 0.300725
vt 1.000000 0.176202
vt 0.985154 0.354141
vt 0.578290 0.284210
vt 0.472583 0.371152
vt 0.414776 0.234077
vt 0.725837 0.384709
vt 0.846257 0.333773
vt 0.056244 0.211670
vt 0.128300 0.312564
vt 0.073409 0.448355
vt 0.177998 0.414449
vt 0.382074 0.442506
vt 0.275644 0.451269
vt 0.650000 0.453450
vt 0.927917 0.502947
vt 0.000000 0.571001
vt 0.000000 0.356825
vt 0.177869 0.564006
vt 0.581855 0.452150
vt 0.471556 0.549594
vt 0.818135 0.452118
vt 0.750000 0.566398
vt 0.700000 0.522195
vt 0.650000 0.615388
vt 0.871599 0.623206
vt 0.074179 0.621165
vt 0.400000 0.671842
vt 0.580769 0.620154
vt 0.472875 0.721823
vt 0.689148 0.716930
vt 0.039344 0.753970
vt 0.250000 0.621014
vt 0.172132 0.756615
vt 0.332027 0.810228
vt 0.321745 0.616491
vt 0.800000 0.619061
vt 0.770807 0.743618
vt 0.981723 0.611459
vt 0.898595 0.797973
vt 1.000000 0.758724
vt 0.170233 0.916943
vt 0.785717 0.882107
vt 0.940201 0.921036
vt 0.554240 0.834294
s 1
f 1/1/1 2/2/2 3/3/3
f 1/1/1 9/4/4 4/5/5
f 2/2/2 4/5/5 8/6/6
f 5/7/7 3/3/3 12/8/8
f 11/9/9 10/10/10 9/4/4
f 7/11/11 14/12/12 6/13/13
f 8/6/6 4/5/5 18/14/14
f 9/4/4 10/10/10 15/15/15
f 11/16/9 13/17/16 16/18/17
f 5/7/7 12/8/8 19/19/18
f 6/13/13 14/12/12 17/20/19
f 4/5/5 15/15/15 18/14/14
f 13/17/16 19/19/18 16/18/17
f 17/20/19 20/21/20 12/8/8
f 18/14/14 22/22/21 8/6/6
f 15/15/15 10/10/10 29/23/22
f 16/18/17 25/24/23 10/25/10
f 19/19/18 20/21/20 26/26/24
f 21/27/25 27/28/26 14/12/12
f 18/14/14 23/29/27 28/30/28
f 22/22/21 24/31/29 33/32/30
f 29/23/22 35/33/31 23/29/27
f 26/26/24 36/34/32 16/18/17
f 27/28/26 37/35/33 17/20/19
f 21/27/25 7/11/11 8/6/6 22/22/21
f 27/28/26 32/36/34 38/37/35
f 28/30/28 39/38/36 24/31/29
f 36/34/32 40/39/37 25/24/23
f 30/40/38 41/41/39 26/26/24
f 37/35/33 43/42/40 31/43/41
f 34/44/42 42/45/43 28/30/28
f 41/41/39 40/39/37 36/34/32
f 31/43/41 43/42/40 30/40/38
f 25/46/23 45/47/44 35/33/31
f 38/37/35 43/42/40 37/35/33
f 25/46/23 40/48/37 45/47/44
f 41/41/39 46/49/45 40/39/37
f 45/47/44 47/50/46 42/45/43
f 45/47/44 46/51/45 47/50/46
f 44/52/47 46/49/45 43/42/40
f 44/52/47 47/50/46 46/49/45
f 1/1/1 5/7/7 11/16/9
f 1/1/1 3/3/3 5/7/7
f 2/2/2 1/1/1 4/5/5
f 1/1/1 11/9/9 9/4/4
f 3/3/3 2/2/2 6/13/13
f 2/2/2 7/11/11 6/13/13
f 2/2/2 8/6/6 7/11/11
f 5/7/7 13/17/16 11/16/9
f 6/13/13 12/8/8 3/3/3
f 4/5/5 9/4/4 15/15/15
f 10/25/10 11/16/9 16/18/17
f 5/7/7 19/19/18 13/17/16
f 12/8/8 6/13/13 17/20/19
f 12/8/8 20/21/20 19/19/18
f 7/11/11 21/27/25 14/12/12
f 33/32/30 32/36/34 21/27/25 22/22/21
f 18/14/14 15/15/15 23/29/27
f 18/14/14 24/31/29 22/22/21
f 23/29/27 15/15/15 29/23/22
f 19/19/18 26/26/24 16/18/17
f 17/20/19 14/12/12 27/28/26
f 24/31/29 18/14/14 28/30/28
f 10/10/10 25/46/23 29/23/22
f 25/24/23 16/18/17 36/34/32
f 20/21/20 30/40/38 26/26/24
f 20/21/20 31/43/41 30/40/38
f 20/21/20 17/20/19 31/43/41
f 27/28/26 21/27/25 32/36/34
f 39/38/36 44/52/47 32/36/34 33/32/30
f 23/29/27 34/44/42 28/30/28
f 23/29/27 35/33/31 34/44/42
f 17/20/19 37/35/33 31/43/41
f 29/23/22 25/46/23 35/33/31
f 26/26/24 41/41/39 36/34/32
f 27/28/26 38/37/35 37/35/33
f 33/32/30 24/31/29 39/38/36
f 28/30/28 42/45/43 39/38/36
f 41/41/39 30/40/38 43/42/40
f 38/37/35 32/36/34 44/52/47
f 42/45/43 34/44/42 35/33/31 45/47/44
f 42/45/43 47/50/46 39/38/36
f 38/37/35 44/52/47 43/42/40
f 44/52/47 39/38/36 47/50/46
f 45/47/44 40/48/37 46/51/45
f 41/41/39 43/42/40 46/49/45
